<svg id="Camada_1" data-name="Camada 1" xmlns="http://www.w3.org/2000/svg" viewBox="0 0 146.75 146.75"><path d="M102.13,38.31q-3.64,0-13.35,8.39A121.15,121.15,0,0,0,69.93,67.78l-.41.58,32.05-17A27.18,27.18,0,0,0,104,40.26C104,39,103.39,38.31,102.13,38.31Z" fill="none"/><path d="M117.07,34.26q-6.94-5.17-17.23-5.18a29,29,0,0,0-15.53,4.79A59.82,59.82,0,0,0,69.66,47.43q-7,8.76-15.52,26.88L58.37,59q3.95-14.3,3.94-22.53a34.6,34.6,0,0,0-.76-6.23H40.49a78.27,78.27,0,0,1,.59,8.41q0,8.05-5.65,32.73-2.13,9.3-4.12,17.26L69.52,68.36l.41-.58A121.15,121.15,0,0,1,88.78,46.7q9.7-8.39,13.35-8.39c1.26,0,1.88.65,1.88,1.95a27.18,27.18,0,0,1-2.44,11.13l20.77-11A17.22,17.22,0,0,0,117.07,34.26Z" fill="#29a3dd"/><path d="M101.57,51.39a35.75,35.75,0,0,1-1.94,3.72q-4.38,7.32-8.73,10.73Q86.72,69.08,78,69.08L76,69a5.81,5.81,0,0,1-.88-.12l-4,4.12.82,2.82q10.65,36.47,25,36.47,9.7,0,22.46-10.12L116.84,97q-4.65,3.18-7.59,3.18-7.12,0-15.88-25.41,10.81-1.65,17-5.76a34.87,34.87,0,0,0,9.92-9.68A20.27,20.27,0,0,0,124,47.9a16.67,16.67,0,0,0-1.67-7.51Z" fill="#2ca3dd"/><path d="M25.08,111.19H47A143.13,143.13,0,0,1,54.2,94,180.53,180.53,0,0,1,69.52,68.36L31.31,88.6Q28,101.74,25.08,111.19Z" fill="#2ca3dd"/><line x1="12.67" y1="99.17" x2="134.08" y2="35.34" fill="none" stroke="#2ca3dd" stroke-linecap="round" stroke-linejoin="round" stroke-width="6"/><path d="M17.84,107.92A10.15,10.15,0,1,1,22.1,94.21,10.15,10.15,0,0,1,17.84,107.92Z" fill="#2ca3dd"/><path d="M138.35,44.56a10.15,10.15,0,1,0-13.7-4.26A10.16,10.16,0,0,0,138.35,44.56Z" fill="#2ca3dd"/><path d="M103.69,36.79q-4.17,0-15.25,9.29A135.79,135.79,0,0,0,66.91,69.47l-.47.64L103,51.29a29.33,29.33,0,0,0,2.8-12.35A1.9,1.9,0,0,0,103.69,36.79Z" fill="#2ca3dd"/></svg>